# xmcd
#
# Track frame offsets:
#	150
#	12247
#	27722
#	43214
#	56234
#	73239
#	87317
#	101691
#	119393
#	136239
#	157075
#
# Disc length: 2346 seconds
# Revision: 0
# Processed by: cddbd v1.5.2PL0 Copyright (c) Steve Scherf et al.
# Submitted via: dBpowerAMP V12.0
#
DISCID=a309280b
DTITLE=Salt - The Cobra's Melody And Other Refrains
DYEAR=2011
DGENRE=Blues
TTITLE0=All Wired Up
TTITLE1=The Cobra's Melody
TTITLE2=Streetwalker
TTITLE3=Full Moon Boogie
TTITLE4=Key To The Highway
TTITLE5=Keep Your Mother Worrying
TTITLE6=Money's Getting Cheaper
TTITLE7=Driving Wheel
TTITLE8=Put The Blame
TTITLE9=Spoonful
TTITLE10=The House Of The Rising Sun
EXTD=
EXTT0=
EXTT1=
EXTT2=
EXTT3=
EXTT4=
EXTT5=
EXTT6=
EXTT7=
EXTT8=
EXTT9=
EXTT10=
PLAYORDER=
